<?xml version="1.0" standalone="no"?>
<!DOCTYPE svg PUBLIC "-//W3C//DTD SVG 20010904//EN"
 "http://www.w3.org/TR/2001/REC-SVG-20010904/DTD/svg10.dtd">
<svg version="1.0" xmlns="http://www.w3.org/2000/svg"
 width="199.000000pt" height="140.000000pt" viewBox="0 0 199.000000 140.000000"
 preserveAspectRatio="xMidYMid meet">
<metadata>
Created by potrace 1.16, written by Peter Selinger 2001-2019
</metadata>
<g transform="translate(0.000000,140.000000) scale(0.100000,-0.100000)"
fill="#fff" stroke="none">
<path d="M926 1088 c-93 -162 -406 -743 -406 -754 0 -7 19 -46 43 -86 24 -40
59 -99 77 -131 l34 -57 336 0 c184 0 340 4 346 8 8 6 92 130 128 189 6 11 -33
85 -134 256 l-22 37 -159 0 c-87 0 -159 3 -159 7 0 3 34 66 75 138 41 73 75
136 75 140 0 9 -123 225 -152 268 -28 39 -53 34 -82 -15z m74 -110 c10 -24 32
-66 48 -94 l30 -50 -134 -235 c-90 -157 -133 -242 -131 -259 l2 -25 203 -3
202 -2 41 65 c23 36 45 65 49 65 4 0 12 -12 18 -27 5 -16 23 -50 41 -77 17
-28 31 -56 31 -63 0 -7 -19 -42 -42 -78 l-43 -65 -302 0 -302 0 -34 57 c-18
32 -46 79 -60 104 l-26 46 186 341 c103 188 191 342 195 342 5 0 17 -19 28
-42z m240 -501 c0 -30 -25 -37 -131 -37 l-108 0 -18 -30 c-13 -22 -25 -30 -46
-30 -33 0 -32 6 8 69 l25 41 135 0 c104 0 135 -3 135 -13z"/>
</g>
</svg>
